{
  "source": "C:\\Users\\Peter\\Desktop\\stuff\\MIUN\\quantitative_research\\video_compression\\videos\\HEVC_CLASS_B\\ParkScene_1920x1080_24.y4m",
  "output": "C:\\Users\\Peter\\Desktop\\stuff\\MIUN\\quantitative_research\\video_compression\\compressed_videos\\HEVC_CLASS_B\\vp9\\3\\ParkScene_1920x1080_24_vp9.webm",
  "codec": "vp9",
  "ok": "Input #0, yuv4mpegpipe, from 'C:\\Users\\Peter\\Desktop\\stuff\\MIUN\\quantitative_research\\video_compression\\videos\\HEVC_CLASS_B\\ParkScene_1920x1080_24.y4m':\n  Duration: 00:00:10.00, start: 0.000000, bitrate: 597198 kb/s\n  Stream #0:0: Video: rawvideo (I420 / 0x30323449), yuv420p(progressive), 1920x1080, 24 fps, 24 tbr, 24 tbn\n[out#0/webm @ 0000024e56039a00] Codec AVOption b:a (set bitrate (in bits/s)) has not been used for any stream. The most likely reason is either wrong type (e.g. a video option with no video streams) or that it is a private option of some decoder which was not actually used for any stream.\nStream mapping:\n  Stream #0:0 -> #0:0 (rawvideo (native) -> vp9 (libvpx-vp9))\nPress [q] to stop, [?] for help\n[libvpx-vp9 @ 0000024e5603ce00] v1.15.2-100-g40561f514\nOutput #0, webm, to 'C:\\Users\\Peter\\Desktop\\stuff\\MIUN\\quantitative_research\\video_compression\\compressed_videos\\HEVC_CLASS_B\\vp9\\3\\ParkScene_1920x1080_24_vp9.webm':\n  Metadata:\n    encoder         : Lavf62.3.100\n  Stream #0:0: Video: vp9, yuv420p(tv, progressive), 1920x1080, q=2-31, 3000 kb/s, 24 fps, 1k tbn\n    Metadata:\n      encoder         : Lavc62.11.100 libvpx-vp9\n    Side data:\n      cpb: bitrate max/min/avg: 0/0/0 buffer size: 3000000 vbv_delay: N/A\nframe=    0 fps=0.0 q=0.0 size=       0KiB time=N/A bitrate=N/A speed=N/A elapsed=0:00:00.52    \nframe=    3 fps=2.9 q=45.0 size=       0KiB time=00:00:00.12 bitrate=  30.8kbits/s speed=0.119x elapsed=0:00:01.04    \nframe=    7 fps=4.5 q=41.0 size=       0KiB time=00:00:00.29 bitrate=  13.2kbits/s speed=0.186x elapsed=0:00:01.57    \nframe=   10 fps=4.8 q=41.0 size=       0KiB time=00:00:00.41 bitrate=   9.3kbits/s speed=0.199x elapsed=0:00:02.09    \nframe=   13 fps=5.0 q=38.0 size=       0KiB time=00:00:00.54 bitrate=   7.1kbits/s speed=0.207x elapsed=0:00:02.61    \nframe=   16 fps=5.1 q=40.0 size=       0KiB time=00:00:00.66 bitrate=   5.8kbits/s speed=0.214x elapsed=0:00:03.12    \nframe=   19 fps=5.2 q=40.0 size=       0KiB time=00:00:00.79 bitrate=   4.9kbits/s speed=0.217x elapsed=0:00:03.64    \nframe=   21 fps=5.0 q=27.0 size=       0KiB time=00:00:00.87 bitrate=   4.4kbits/s speed=0.21x elapsed=0:00:04.16    \nframe=   24 fps=5.1 q=38.0 size=       0KiB time=00:00:01.00 bitrate=   3.9kbits/s speed=0.214x elapsed=0:00:04.66    \nframe=   27 fps=5.2 q=39.0 size=       0KiB time=00:00:01.12 bitrate=   3.4kbits/s speed=0.217x elapsed=0:00:05.19    \nframe=   30 fps=5.3 q=40.0 size=       0KiB time=00:00:01.25 bitrate=   3.1kbits/s speed=0.219x elapsed=0:00:05.71    \nframe=   32 fps=5.1 q=40.0 size=       0KiB time=00:00:01.33 bitrate=   2.9kbits/s speed=0.214x elapsed=0:00:06.23    \nframe=   35 fps=5.2 q=39.0 size=       0KiB time=00:00:01.45 bitrate=   2.6kbits/s speed=0.216x elapsed=0:00:06.74    \nframe=   38 fps=5.2 q=40.0 size=       0KiB time=00:00:01.58 bitrate=   2.4kbits/s speed=0.218x elapsed=0:00:07.26    \nframe=   40 fps=5.1 q=41.0 size=       0KiB time=00:00:01.66 bitrate=   2.3kbits/s speed=0.214x elapsed=0:00:07.78    \nframe=   42 fps=5.0 q=41.0 size=       0KiB time=00:00:01.75 bitrate=   2.2kbits/s speed=0.21x elapsed=0:00:08.33    \nframe=   45 fps=5.1 q=39.0 size=       0KiB time=00:00:01.87 bitrate=   2.1kbits/s speed=0.211x elapsed=0:00:08.88    \nframe=   47 fps=5.0 q=40.0 size=       0KiB time=00:00:01.95 bitrate=   2.0kbits/s speed=0.208x elapsed=0:00:09.39    \nframe=   49 fps=4.9 q=41.0 size=       0KiB time=00:00:02.04 bitrate=   1.9kbits/s speed=0.206x elapsed=0:00:09.91    \nframe=   51 fps=4.9 q=25.0 size=       0KiB time=00:00:02.12 bitrate=   1.8kbits/s speed=0.203x elapsed=0:00:10.44    \nframe=   54 fps=4.9 q=41.0 size=       0KiB time=00:00:02.25 bitrate=   1.7kbits/s speed=0.205x elapsed=0:00:10.97    \nframe=   56 fps=4.9 q=42.0 size=       0KiB time=00:00:02.33 bitrate=   1.7kbits/s speed=0.203x elapsed=0:00:11.51    \nframe=   59 fps=4.9 q=43.0 size=       0KiB time=00:00:02.45 bitrate=   1.6kbits/s speed=0.204x elapsed=0:00:12.03    \nframe=   60 fps=4.8 q=43.0 size=       0KiB time=00:00:02.50 bitrate=   1.5kbits/s speed=0.199x elapsed=0:00:12.55    \nframe=   63 fps=4.8 q=41.0 size=       0KiB time=00:00:02.62 bitrate=   1.5kbits/s speed=0.201x elapsed=0:00:13.07    \nframe=   66 fps=4.9 q=41.0 size=       0KiB time=00:00:02.75 bitrate=   1.4kbits/s speed=0.202x elapsed=0:00:13.59    \nframe=   68 fps=4.8 q=42.0 size=       0KiB time=00:00:02.83 bitrate=   1.4kbits/s speed= 0.2x elapsed=0:00:14.14    \nframe=   70 fps=4.8 q=42.0 size=       0KiB time=00:00:02.91 bitrate=   1.3kbits/s speed=0.199x elapsed=0:00:14.65    \nframe=   73 fps=4.8 q=40.0 size=       0KiB time=00:00:03.04 bitrate=   1.3kbits/s speed= 0.2x elapsed=0:00:15.23    \nframe=   76 fps=4.8 q=41.0 size=       0KiB time=00:00:03.12 bitrate=   1.2kbits/s speed=0.198x elapsed=0:00:15.75    \nframe=   78 fps=4.8 q=41.0 size=       0KiB time=00:00:03.25 bitrate=   1.2kbits/s speed=0.199x elapsed=0:00:16.32    \nframe=   80 fps=4.8 q=42.0 size=       0KiB time=00:00:03.33 bitrate=   1.2kbits/s speed=0.198x elapsed=0:00:16.83    \nframe=   83 fps=4.8 q=39.0 size=       0KiB time=00:00:03.45 bitrate=   1.1kbits/s speed=0.199x elapsed=0:00:17.37    \nframe=   86 fps=4.8 q=41.0 size=       0KiB time=00:00:03.58 bitrate=   1.1kbits/s speed= 0.2x elapsed=0:00:17.91    \nframe=   89 fps=4.8 q=42.0 size=       0KiB time=00:00:03.70 bitrate=   1.0kbits/s speed=0.201x elapsed=0:00:18.46    \nframe=   90 fps=4.7 q=42.0 size=       0KiB time=00:00:03.75 bitrate=   1.0kbits/s speed=0.198x elapsed=0:00:18.98    \nframe=   93 fps=4.8 q=39.0 size=       0KiB time=00:00:03.87 bitrate=   1.0kbits/s speed=0.199x elapsed=0:00:19.50    \nframe=   96 fps=4.8 q=40.0 size=       0KiB time=00:00:04.00 bitrate=   1.0kbits/s speed= 0.2x elapsed=0:00:20.01    \nframe=   99 fps=4.8 q=41.0 size=       0KiB time=00:00:04.12 bitrate=   0.9kbits/s speed=0.201x elapsed=0:00:20.52    \nframe=  100 fps=4.7 q=41.0 size=       0KiB time=00:00:04.16 bitrate=   0.9kbits/s speed=0.198x elapsed=0:00:21.05    \nframe=  104 fps=4.8 q=40.0 size=       0KiB time=00:00:04.33 bitrate=   0.9kbits/s speed=0.201x elapsed=0:00:21.58    \nframe=  106 fps=4.8 q=40.0 size=       0KiB time=00:00:04.41 bitrate=   0.9kbits/s speed= 0.2x elapsed=0:00:22.10    \nframe=  109 fps=4.8 q=41.0 size=       0KiB time=00:00:04.54 bitrate=   0.8kbits/s speed=0.201x elapsed=0:00:22.62    \nframe=  111 fps=4.8 q=26.0 size=       0KiB time=00:00:04.62 bitrate=   0.8kbits/s speed= 0.2x elapsed=0:00:23.14    \nframe=  114 fps=4.8 q=39.0 size=       0KiB time=00:00:04.75 bitrate=   0.8kbits/s speed=0.201x elapsed=0:00:23.68    \nframe=  117 fps=4.8 q=40.0 size=       0KiB time=00:00:04.87 bitrate=   0.8kbits/s speed=0.201x elapsed=0:00:24.20    \nframe=  120 fps=4.8 q=40.0 size=       0KiB time=00:00:05.00 bitrate=   0.8kbits/s speed=0.202x elapsed=0:00:24.75    \nframe=  122 fps=4.8 q=42.0 size=       0KiB time=00:00:05.08 bitrate=   0.8kbits/s speed=0.201x elapsed=0:00:25.34    \nframe=  126 fps=4.9 q=40.0 size=    2048KiB time=00:00:05.25 bitrate=3195.7kbits/s speed=0.203x elapsed=0:00:25.88    \nframe=  128 fps=4.8 q=40.0 size=    2048KiB time=00:00:05.33 bitrate=3145.7kbits/s speed=0.202x elapsed=0:00:26.42    \nframe=  130 fps=4.8 q=38.0 size=    2048KiB time=00:00:05.41 bitrate=3097.3kbits/s speed=0.201x elapsed=0:00:26.99    \nframe=  133 fps=4.8 q=37.0 size=    2048KiB time=00:00:05.54 bitrate=3027.5kbits/s speed=0.201x elapsed=0:00:27.51    \nframe=  136 fps=4.9 q=39.0 size=    2048KiB time=00:00:05.66 bitrate=2960.7kbits/s speed=0.202x elapsed=0:00:28.03    \nframe=  138 fps=4.8 q=39.0 size=    2048KiB time=00:00:05.75 bitrate=2917.8kbits/s speed=0.201x elapsed=0:00:28.56    \nframe=  142 fps=4.9 q=37.0 size=    2048KiB time=00:00:05.91 bitrate=2835.6kbits/s speed=0.203x elapsed=0:00:29.11    \nframe=  145 fps=4.9 q=38.0 size=    2048KiB time=00:00:06.04 bitrate=2776.9kbits/s speed=0.204x elapsed=0:00:29.65    \nframe=  148 fps=4.9 q=39.0 size=    2048KiB time=00:00:06.16 bitrate=2720.6kbits/s speed=0.204x elapsed=0:00:30.19    \nframe=  149 fps=4.8 q=24.0 size=    2048KiB time=00:00:06.20 bitrate=2702.4kbits/s speed=0.202x elapsed=0:00:30.73    \nframe=  152 fps=4.9 q=37.0 size=    2048KiB time=00:00:06.33 bitrate=2649.0kbits/s speed=0.203x elapsed=0:00:31.26    \nframe=  156 fps=4.9 q=38.0 size=    2048KiB time=00:00:06.45 bitrate=2597.8kbits/s speed=0.203x elapsed=0:00:31.78    \nframe=  158 fps=4.9 q=38.0 size=    2048KiB time=00:00:06.58 bitrate=2548.4kbits/s speed=0.204x elapsed=0:00:32.34    \nframe=  160 fps=4.9 q=39.0 size=    2048KiB time=00:00:06.66 bitrate=2516.6kbits/s speed=0.203x elapsed=0:00:32.85    \nframe=  163 fps=4.9 q=37.0 size=    2048KiB time=00:00:06.79 bitrate=2470.3kbits/s speed=0.203x elapsed=0:00:33.37    \nframe=  166 fps=4.9 q=38.0 size=    2048KiB time=00:00:06.91 bitrate=2425.6kbits/s speed=0.204x elapsed=0:00:33.90    \nframe=  168 fps=4.9 q=39.0 size=    2048KiB time=00:00:07.00 bitrate=2396.7kbits/s speed=0.203x elapsed=0:00:34.46    \nframe=  171 fps=4.9 q=37.0 size=    2048KiB time=00:00:07.12 bitrate=2354.7kbits/s speed=0.203x elapsed=0:00:35.01    \nframe=  174 fps=4.9 q=39.0 size=    2048KiB time=00:00:07.25 bitrate=2314.1kbits/s speed=0.204x elapsed=0:00:35.55    \nframe=  177 fps=4.9 q=39.0 size=    2048KiB time=00:00:07.37 bitrate=2274.9kbits/s speed=0.204x elapsed=0:00:36.09    \nframe=  178 fps=4.9 q=40.0 size=    2048KiB time=00:00:07.41 bitrate=2262.1kbits/s speed=0.202x elapsed=0:00:36.63    \nframe=  181 fps=4.9 q=38.0 size=    2048KiB time=00:00:07.54 bitrate=2224.6kbits/s speed=0.203x elapsed=0:00:37.16    \nframe=  184 fps=4.9 q=39.0 size=    2048KiB time=00:00:07.66 bitrate=2188.3kbits/s speed=0.203x elapsed=0:00:37.69    \nframe=  187 fps=4.9 q=40.0 size=    2048KiB time=00:00:07.79 bitrate=2153.2kbits/s speed=0.204x elapsed=0:00:38.21    \nframe=  190 fps=4.9 q=39.0 size=    2048KiB time=00:00:07.91 bitrate=2119.2kbits/s speed=0.204x elapsed=0:00:38.79    \nframe=  194 fps=4.9 q=39.0 size=    2048KiB time=00:00:08.08 bitrate=2075.5kbits/s speed=0.206x elapsed=0:00:39.31    \nframe=  198 fps=5.0 q=40.0 size=    2048KiB time=00:00:08.25 bitrate=2033.6kbits/s speed=0.207x elapsed=0:00:39.85    \nframe=  201 fps=5.0 q=38.0 size=    2048KiB time=00:00:08.37 bitrate=2003.2kbits/s speed=0.207x elapsed=0:00:40.41    \nframe=  205 fps=5.0 q=39.0 size=    2048KiB time=00:00:08.54 bitrate=1964.2kbits/s speed=0.209x elapsed=0:00:40.95    \nframe=  208 fps=5.0 q=40.0 size=    2048KiB time=00:00:08.66 bitrate=1935.8kbits/s speed=0.209x elapsed=0:00:41.48    \nframe=  212 fps=5.0 q=40.0 size=    2048KiB time=00:00:08.83 bitrate=1899.3kbits/s speed=0.21x elapsed=0:00:41.99    \nframe=  216 fps=5.1 q=40.0 size=    2048KiB time=00:00:09.00 bitrate=1864.1kbits/s speed=0.212x elapsed=0:00:42.51    \nframe=  216 fps=5.0 q=40.0 size=    2048KiB time=00:00:09.00 bitrate=1864.1kbits/s speed=0.209x elapsed=0:00:43.08    \nframe=  216 fps=5.0 q=40.0 size=    2048KiB time=00:00:09.00 bitrate=1864.1kbits/s speed=0.206x elapsed=0:00:43.61    \nframe=  216 fps=4.9 q=40.0 size=    2048KiB time=00:00:09.00 bitrate=1864.1kbits/s speed=0.204x elapsed=0:00:44.16    \nframe=  216 fps=4.8 q=40.0 size=    2048KiB time=00:00:09.00 bitrate=1864.1kbits/s speed=0.201x elapsed=0:00:44.71    \nframe=  216 fps=4.8 q=40.0 size=    2048KiB time=00:00:09.00 bitrate=1864.1kbits/s speed=0.199x elapsed=0:00:45.29    \n[out#0/webm @ 0000024e56039a00] video:4051KiB audio:0KiB subtitle:0KiB other streams:0KiB global headers:0KiB muxing overhead: 0.054532%\nframe=  240 fps=5.3 q=33.0 Lsize=    4053KiB time=00:00:10.00 bitrate=3320.2kbits/s speed=0.219x elapsed=0:00:45.63    \n",
  "seconds": 45.78560757637024,
  "probe_out": {}
}